<svg width="1200" height="720" viewBox="0 0 1200 720" fill="none" xmlns="http://www.w3.org/2000/svg">
  <defs>
    <linearGradient id="poster" x1="0" y1="0" x2="1200" y2="720" gradientUnits="userSpaceOnUse">
      <stop stop-color="#E9D7B9"/>
      <stop offset="1" stop-color="#D5C09C"/>
    </linearGradient>
    <linearGradient id="shadow" x1="600" y1="0" x2="600" y2="720" gradientUnits="userSpaceOnUse">
      <stop stop-color="#F8EEE0" stop-opacity="0.8"/>
      <stop offset="1" stop-color="#C8A87C" stop-opacity="0.12"/>
    </linearGradient>
  </defs>
  <rect width="1200" height="720" fill="url(#poster)"/>
  <rect x="74" y="74" width="1052" height="572" rx="28" fill="url(#shadow)"/>
  <rect x="146" y="162" width="182" height="34" rx="17" fill="#D0B183" fill-opacity="0.8"/>
  <rect x="146" y="224" width="388" height="108" rx="16" fill="#163D5A" fill-opacity="0.92"/>
  <rect x="146" y="362" width="292" height="18" rx="9" fill="#A69070"/>
  <rect x="146" y="402" width="344" height="16" rx="8" fill="#B7A080"/>
  <rect x="146" y="438" width="272" height="16" rx="8" fill="#B7A080"/>
  <rect x="146" y="522" width="164" height="56" rx="18" fill="#FFFFFF"/>
  <rect x="642" y="164" width="392" height="396" rx="28" fill="#E1CDAF" fill-opacity="0.78"/>
  <circle cx="838" cy="294" r="96" fill="#F5E6CE"/>
  <circle cx="838" cy="294" r="66" fill="#DBBF98"/>
  <circle cx="838" cy="294" r="28" fill="#A88760"/>
  <path d="M682 510C744 470 786 462 848 468C918 476 970 506 1034 560" stroke="#B69971" stroke-width="18" stroke-linecap="round"/>
  <path d="M712 150C756 104 828 88 910 98C968 106 1018 134 1050 180" stroke="#F8EEDB" stroke-width="10" stroke-linecap="round" opacity="0.72"/>
</svg>
