<svg width="1200" height="720" viewBox="0 0 1200 720" fill="none" xmlns="http://www.w3.org/2000/svg">
  <defs>
    <linearGradient id="wall" x1="600" y1="0" x2="600" y2="720" gradientUnits="userSpaceOnUse">
      <stop stop-color="#F8F2E8"/>
      <stop offset="1" stop-color="#E6D4B7"/>
    </linearGradient>
    <linearGradient id="floor" x1="600" y1="470" x2="600" y2="720" gradientUnits="userSpaceOnUse">
      <stop stop-color="#D5A871"/>
      <stop offset="1" stop-color="#B57D49"/>
    </linearGradient>
    <linearGradient id="window" x1="600" y1="120" x2="600" y2="380" gradientUnits="userSpaceOnUse">
      <stop stop-color="#F6FDFF"/>
      <stop offset="1" stop-color="#DDF3F6"/>
    </linearGradient>
  </defs>
  <rect width="1200" height="720" fill="url(#wall)"/>
  <rect y="470" width="1200" height="250" fill="url(#floor)"/>
  <g opacity="0.22" stroke="#FAE8CB" stroke-width="2">
    <path d="M0 522H1200"/>
    <path d="M0 578H1200"/>
    <path d="M0 634H1200"/>
    <path d="M120 470V720"/>
    <path d="M300 470V720"/>
    <path d="M480 470V720"/>
    <path d="M660 470V720"/>
    <path d="M840 470V720"/>
    <path d="M1020 470V720"/>
  </g>
  <rect x="294" y="100" width="612" height="308" rx="12" fill="#C58C4C"/>
  <rect x="324" y="130" width="552" height="248" rx="8" fill="url(#window)"/>
  <path d="M600 100V408" stroke="#C58C4C" stroke-width="14"/>
  <path d="M324 254H876" stroke="#C58C4C" stroke-width="14"/>
  <rect x="394" y="412" width="412" height="138" rx="18" fill="#D8B48A"/>
  <rect x="430" y="438" width="116" height="82" rx="10" fill="#4A4F54"/>
  <rect x="654" y="438" width="116" height="82" rx="10" fill="#4A4F54"/>
  <rect x="556" y="448" width="80" height="72" rx="10" fill="#C8B48B"/>
  <rect x="386" y="528" width="432" height="26" rx="13" fill="#C08D58"/>
  <path d="M452 146L410 212" stroke="#E7C493" stroke-width="6" stroke-linecap="round"/>
  <path d="M748 146L790 212" stroke="#E7C493" stroke-width="6" stroke-linecap="round"/>
  <ellipse cx="410" cy="230" rx="34" ry="24" fill="#F7EDDA"/>
  <ellipse cx="790" cy="230" rx="34" ry="24" fill="#F7EDDA"/>
  <rect x="118" y="260" width="118" height="156" rx="10" fill="#F4F0EA" stroke="#D3C0A5" stroke-width="6"/>
  <rect x="138" y="278" width="78" height="118" rx="4" fill="#D5E5EA"/>
  <path d="M156 308H196" stroke="#BBA585" stroke-width="5" stroke-linecap="round"/>
  <path d="M156 338H204" stroke="#BBA585" stroke-width="5" stroke-linecap="round"/>
  <path d="M156 368H188" stroke="#BBA585" stroke-width="5" stroke-linecap="round"/>
  <ellipse cx="238" cy="520" rx="54" ry="32" fill="#C99659"/>
  <rect x="194" y="402" width="88" height="126" rx="22" fill="#6B9665"/>
  <g opacity="0.26">
    <circle cx="930" cy="178" r="42" fill="#D1E8C8"/>
    <circle cx="986" cy="128" r="36" fill="#D6F0CD"/>
    <circle cx="1028" cy="190" r="48" fill="#C7E4C3"/>
  </g>
</svg>
