<svg width="1600" height="900" viewBox="0 0 1600 900" fill="none" xmlns="http://www.w3.org/2000/svg">
  <defs>
    <linearGradient id="bg" x1="800" y1="0" x2="800" y2="900" gradientUnits="userSpaceOnUse">
      <stop stop-color="#E8F3FF"/>
      <stop offset="1" stop-color="#C8D9EA"/>
    </linearGradient>
    <linearGradient id="glass" x1="800" y1="240" x2="800" y2="760" gradientUnits="userSpaceOnUse">
      <stop stop-color="#DFF3FF" stop-opacity="0.9"/>
      <stop offset="1" stop-color="#BFD7F2" stop-opacity="0.72"/>
    </linearGradient>
    <linearGradient id="wood" x1="0" y1="0" x2="0" y2="1">
      <stop stop-color="#C99B63"/>
      <stop offset="1" stop-color="#A77445"/>
    </linearGradient>
  </defs>
  <rect width="1600" height="900" fill="url(#bg)"/>
  <rect x="72" y="84" width="1456" height="732" rx="24" fill="#EDF4FB"/>
  <rect x="158" y="94" width="1284" height="98" rx="18" fill="#DDE9F5"/>
  <rect x="244" y="116" width="1112" height="54" rx="14" fill="#EFF5FA"/>
  <rect x="178" y="194" width="1244" height="554" rx="18" fill="#E3EDF6"/>
  <rect x="220" y="220" width="1160" height="492" rx="12" fill="#F6F9FC"/>
  <rect x="244" y="244" width="1112" height="444" rx="8" fill="#CAD7E4"/>
  <rect x="314" y="244" width="972" height="70" rx="8" fill="#F5F5F0"/>
  <rect x="330" y="330" width="202" height="330" rx="8" fill="#B68753"/>
  <rect x="546" y="330" width="494" height="330" rx="6" fill="url(#glass)"/>
  <rect x="1054" y="330" width="202" height="330" rx="8" fill="#B68753"/>
  <rect x="586" y="368" width="414" height="240" rx="8" fill="#C89A63"/>
  <g opacity="0.7">
    <rect x="602" y="392" width="382" height="14" rx="7" fill="#B07A46"/>
    <rect x="602" y="434" width="382" height="14" rx="7" fill="#B07A46"/>
    <rect x="602" y="476" width="382" height="14" rx="7" fill="#B07A46"/>
    <rect x="602" y="518" width="382" height="14" rx="7" fill="#B07A46"/>
  </g>
  <circle cx="706" cy="214" r="16" fill="#F7D7AA"/>
  <circle cx="800" cy="214" r="16" fill="#F7D7AA"/>
  <circle cx="894" cy="214" r="16" fill="#F7D7AA"/>
  <circle cx="988" cy="214" r="16" fill="#F7D7AA"/>
  <circle cx="662" cy="468" r="18" fill="#EED6AE"/>
  <circle cx="754" cy="468" r="18" fill="#EED6AE"/>
  <circle cx="846" cy="468" r="18" fill="#EED6AE"/>
  <circle cx="938" cy="468" r="18" fill="#EED6AE"/>
  <rect x="636" y="564" width="308" height="52" rx="14" fill="#E3C28E"/>
  <rect x="366" y="376" width="130" height="230" rx="8" fill="url(#wood)"/>
  <rect x="1090" y="376" width="130" height="230" rx="8" fill="url(#wood)"/>
  <path d="M244 684H1356" stroke="#C0D0DE" stroke-width="10" stroke-linecap="round"/>
  <path d="M152 748H1448" stroke="#D7E2EC" stroke-width="18" stroke-linecap="round"/>
  <rect x="688" y="578" width="224" height="96" rx="18" fill="#F3E3C7" fill-opacity="0.9"/>
  <rect x="718" y="606" width="76" height="44" rx="12" fill="#C28A50"/>
  <rect x="808" y="594" width="74" height="56" rx="12" fill="#AF7A44"/>
</svg>
